<?xml version="1.0" encoding="UTF-8"?>
<svg id="Layer_5" data-name="Layer 5" xmlns="http://www.w3.org/2000/svg" viewBox="0 0 1024 1024">
  <defs>
    <style>
      .cls-1 {
        fill: #231f20;
      }
    </style>
  </defs>
  <path class="cls-1" d="M536.58,116.82H231.87c-63.54,0-115.05,51.51-115.05,115.05v444.33c0,63.54,51.51,115.05,115.05,115.05h304.71c63.54,0,115.05-51.51,115.05-115.05V231.87c0-63.54-51.51-115.05-115.05-115.05ZM627.93,676.2c0,50.37-40.98,91.36-91.36,91.36H231.87c-50.37,0-91.36-40.98-91.36-91.36V231.87c0-50.37,40.98-91.36,91.36-91.36h304.71c50.37,0,91.36,40.98,91.36,91.36v444.33Z"/>
</svg>