<?xml version="1.0" encoding="UTF-8"?>
<svg id="Layer_5" data-name="Layer 5" xmlns="http://www.w3.org/2000/svg" viewBox="0 0 1024 1024">
  <defs>
    <style>
      .cls-1 {
        fill: #231f20;
      }
    </style>
  </defs>
  <path class="cls-1" d="M792.13,232.75h-304.71c-63.54,0-115.05,51.51-115.05,115.05v444.33c0,63.54,51.51,115.05,115.05,115.05h304.71c63.54,0,115.05-51.51,115.05-115.05v-444.33c0-63.54-51.51-115.05-115.05-115.05ZM883.49,792.13c0,50.37-40.98,91.36-91.36,91.36h-304.71c-50.37,0-91.36-40.98-91.36-91.36v-444.33c0-50.37,40.98-91.36,91.36-91.36h304.71c50.37,0,91.36,40.98,91.36,91.36v444.33Z"/>
  <path class="cls-1" d="M740.14,585.03c-17.71-14.89-42.99-26.26-75.85-34.09l-7.92-1.91v-117.22c8.32,1.07,16.03,3.11,23.11,6.13,10.98,4.68,18.71,12.46,26.69,20.17,5.5,5.32,8.59,11.99,10.33,18,2.72,9.41,11.42,15.83,21.22,15.83h0c14.7,0,25.46-14.11,21.29-28.21-2.67-9.02-7.06-18.7-14.28-26.57-12.29-13.4-25.24-25.88-43.03-33.96-13.85-6.29-28.96-10.13-45.33-11.52v-27.68c0-8.46-6.86-15.32-15.32-15.32h0c-8.46,0-15.32,6.86-15.32,15.32v27.8c-16.36,1.5-31.38,5.29-45.07,11.4-18.13,8.09-32.43,19.45-42.9,34.09-10.47,14.64-15.7,31.92-15.7,51.84v.26c0,16.85,3.74,31.37,11.24,43.54,7.49,12.17,18.51,22.39,33.07,30.65,14.56,8.26,32.39,14.94,53.5,20.05l5.87,1.42v123.14c-11.24-1.18-20.86-3.63-28.86-7.34-11.75-5.45-19-14.18-26.94-21.83-5.38-5.18-8.47-11.73-10.25-17.62-2.78-9.21-11.36-15.45-20.98-15.45h0c-14.81,0-25.45,14.36-20.99,28.48,2.98,9.44,7.8,19.73,15.58,28.34,12.79,14.16,27.37,26.3,46.35,34.22,14.32,5.97,29.69,9.69,46.09,11.16v27.79c0,8.46,6.86,15.32,15.32,15.32h0c8.46,0,15.32-6.86,15.32-15.32v-27.63c16.73-1.31,32.49-4.95,47.25-10.93,18.9-7.66,34.13-18.98,45.71-33.96,11.58-14.98,17.37-33.45,17.37-55.42v-.26c0-26.9-8.85-47.79-26.56-62.7ZM591.13,528.34c-8.77-5.36-15.07-11.49-18.9-18.39-3.83-6.9-5.74-14.51-5.74-22.86v-.26c0-9.36,2.85-18.3,8.55-26.81,5.7-8.51,14.17-15.49,25.41-20.94,7.31-3.54,15.74-5.93,25.28-7.17v109.7c-14.4-3.55-25.94-7.98-34.6-13.28ZM722.26,650.79c0,10.73-2.64,20.52-7.92,29.37-5.28,8.85-13.75,15.88-25.41,21.07-8.73,3.89-19.59,6.32-32.56,7.3v-116.07l1.53.37c25.19,6.13,42.22,13.79,51.08,22.98,8.85,9.19,13.28,20.77,13.28,34.73v.26Z"/>
</svg>